<svg width="800" height="832" viewBox="0 0 800 832" fill="none" xmlns="http://www.w3.org/2000/svg">
<g clip-path="url(#clip0_59_3)">
<path d="M685.781 675.754V731.527C685.781 732.53 686.16 733.492 686.834 734.201C687.508 734.91 688.422 735.308 689.375 735.308H710.938V703.168C710.938 701.663 711.505 700.221 712.516 699.157C713.527 698.093 714.898 697.496 716.328 697.496H734.297C735.727 697.496 737.098 698.093 738.109 699.157C739.12 700.221 739.688 701.663 739.688 703.168V735.308H761.25C762.203 735.308 763.117 734.91 763.791 734.201C764.465 733.492 764.844 732.53 764.844 731.527V675.754" stroke="white" stroke-opacity="0.5" stroke-width="7" stroke-linecap="round" stroke-linejoin="round"/>
<path d="M775.625 686.152L727.758 637.941C726.635 636.693 724.01 636.679 722.867 637.941L675 686.152M757.656 667.955V640.777H746.875V657.084" stroke="white" stroke-opacity="0.5" stroke-width="7" stroke-linecap="round" stroke-linejoin="round"/>
<path d="M690.462 46H613.538C607.166 46 602 51.5964 602 58.5V133.5C602 140.404 607.166 146 613.538 146H690.462C696.834 146 702 140.404 702 133.5V58.5C702 51.5964 696.834 46 690.462 46Z" stroke="white" stroke-opacity="0.5" stroke-width="7" stroke-linejoin="round"/>
<path d="M686.091 46H617.909C609.137 46 602 52.7299 602 61V71H605.846C605.846 67.4286 609.692 63.8571 613.538 63.8571H690.462C694.308 63.8571 698.154 67.4286 698.154 71H702V61C702 52.7299 694.863 46 686.091 46Z" fill="white" fill-opacity="0.5"/>
<path d="M179.25 141.875H0.75C-7.46524 141.875 -14.125 148.563 -14.125 156.812V276.312C-14.125 284.562 -7.46524 291.25 0.75 291.25H179.25C187.465 291.25 194.125 284.562 194.125 276.312V156.812C194.125 148.563 187.465 141.875 179.25 141.875Z" stroke="white" stroke-opacity="0.5" stroke-width="7" stroke-linejoin="round"/>
<path d="M112.312 321.125L108.594 291.25H71.4062L67.6875 321.125H112.312Z" fill="white" fill-opacity="0.5" stroke="white" stroke-opacity="0.5" stroke-width="7" stroke-linecap="round" stroke-linejoin="round"/>
<path d="M142.062 321.125H37.9375" stroke="white" stroke-opacity="0.5" stroke-width="7" stroke-linecap="round" stroke-linejoin="round"/>
<path d="M-14.125 253.906V276.312C-14.114 280.271 -12.5432 284.064 -9.75602 286.863C-6.9688 289.662 -3.1917 291.239 0.75 291.25H179.25C183.192 291.239 186.969 289.662 189.756 286.863C192.543 284.064 194.114 280.271 194.125 276.312V253.906H-14.125ZM90 283.781C88.529 283.781 87.091 283.343 85.8679 282.523C84.6449 281.702 83.6916 280.535 83.1286 279.171C82.5657 277.806 82.4184 276.304 82.7054 274.855C82.9924 273.407 83.7007 272.076 84.7409 271.031C85.781 269.987 87.1063 269.275 88.549 268.987C89.9917 268.699 91.4872 268.847 92.8462 269.412C94.2052 269.978 95.3668 270.935 96.1841 272.163C97.0013 273.391 97.4375 274.835 97.4375 276.312C97.4375 278.293 96.6539 280.193 95.2591 281.594C93.8643 282.994 91.9725 283.781 90 283.781Z" fill="white" fill-opacity="0.5"/>
<path d="M49 674C49 667.373 43.6274 662 37 662C30.3726 662 25 667.373 25 674C25 680.627 30.3726 686 37 686C43.6274 686 49 680.627 49 674Z" stroke="white" stroke-opacity="0.46" stroke-width="7" stroke-miterlimit="10"/>
<path d="M96 674C96 667.373 90.4036 662 83.5 662C76.5964 662 71 667.373 71 674C71 680.627 76.5964 686 83.5 686C90.4036 686 96 680.627 96 674Z" stroke="white" stroke-opacity="0.46" stroke-width="7" stroke-miterlimit="10"/>
<path d="M142 674C142 667.373 136.627 662 130 662C123.373 662 118 667.373 118 674C118 680.627 123.373 686 130 686C136.627 686 142 680.627 142 674Z" stroke="white" stroke-opacity="0.46" stroke-width="7" stroke-miterlimit="10"/>
<path d="M49 720.5C49 713.596 43.6274 708 37 708C30.3726 708 25 713.596 25 720.5C25 727.404 30.3726 733 37 733C43.6274 733 49 727.404 49 720.5Z" stroke="white" stroke-opacity="0.46" stroke-width="7" stroke-miterlimit="10"/>
<path d="M96 720.5C96 713.596 90.4036 708 83.5 708C76.5964 708 71 713.596 71 720.5C71 727.404 76.5964 733 83.5 733C90.4036 733 96 727.404 96 720.5Z" stroke="white" stroke-opacity="0.46" stroke-width="7" stroke-miterlimit="10"/>
<path d="M142 720.5C142 713.596 136.627 708 130 708C123.373 708 118 713.596 118 720.5C118 727.404 123.373 733 130 733C136.627 733 142 727.404 142 720.5Z" stroke="white" stroke-opacity="0.46" stroke-width="7" stroke-miterlimit="10"/>
<path d="M49 767C49 760.373 43.6274 755 37 755C30.3726 755 25 760.373 25 767C25 773.627 30.3726 779 37 779C43.6274 779 49 773.627 49 767Z" stroke="white" stroke-opacity="0.46" stroke-width="7" stroke-miterlimit="10"/>
<path d="M96 767C96 760.373 90.4036 755 83.5 755C76.5964 755 71 760.373 71 767C71 773.627 76.5964 779 83.5 779C90.4036 779 96 773.627 96 767Z" stroke="white" stroke-opacity="0.46" stroke-width="7" stroke-miterlimit="10"/>
<path d="M142 767C142 760.373 136.627 755 130 755C123.373 755 118 760.373 118 767C118 773.627 123.373 779 130 779C136.627 779 142 773.627 142 767Z" stroke="white" stroke-opacity="0.46" stroke-width="7" stroke-miterlimit="10"/>
</g>
<defs>
<clipPath id="clip0_59_3">
<rect width="800" height="832" fill="white"/>
</clipPath>
</defs>
</svg>
